<?xml version="1.0" encoding="UTF-8"?>
<svg id="Layer_1" xmlns="http://www.w3.org/2000/svg" viewBox="0 0 512 512">
  <path d="M59.52,255.19c0-27.12.11-54.24-.03-81.36-.11-20.81,8.41-36.42,26.63-46.89,47.66-27.38,95.23-54.91,142.78-82.49,17.32-10.05,34.42-10.11,51.76-.06,47.55,27.56,95.12,55.11,142.79,82.48,18.21,10.46,26.78,26.01,26.74,46.83-.1,54.24-.06,108.47-.02,162.71.02,20.33-8.32,35.75-26.11,46-47.96,27.63-95.87,55.36-143.79,83.07-16.92,9.78-33.78,9.85-50.72.06-47.92-27.71-95.83-55.44-143.8-83.05-18.25-10.5-26.4-26.34-26.26-47.1.18-26.73.04-53.46.05-80.19ZM414.84,255.96c0-26.06-.39-52.13.18-78.18.24-11.13-4.18-18.08-13.52-23.43-44.87-25.69-89.62-51.59-134.33-77.57-8.19-4.76-15.87-5.08-24.17-.27-45.04,26.14-90.14,52.19-135.3,78.11-8.92,5.12-13.11,11.88-13.04,22.57.38,51.75.38,103.5,0,155.24-.08,10.7,4.12,17.46,13.03,22.58,45.16,25.92,90.25,51.99,135.31,78.1,7.8,4.52,15.27,4.84,23.17.26,45.39-26.28,90.82-52.49,136.28-78.65,8.48-4.88,12.74-11.45,12.54-21.73-.49-25.68-.16-51.37-.15-77.06Z"/>
  <g>
    <path d="M262.43,123.53v212.99c-6.98,1.17-13.81,2.8-20.72,3.36-14.9,1.22-29.84,2.51-44.78,2.61-16.02.1-31.7-2.78-46.13-10.3-18.72-9.76-28.91-25.61-32.46-46.1-.5-2.85-.97-5.71-1.45-8.57,0-5.86,0-11.72,0-17.58.25-1.11.59-2.21.74-3.33,2.33-17.87,9.04-33.62,22.67-45.83,17.36-15.55,38.32-20.16,60.9-19.28,4.95.19,9.87,1.07,15.1,1.66,0-1.34,0-2.49,0-3.64,0-20.84,0-41.68-.01-62.51,0-1.16-.16-2.32-.25-3.48,15.47,0,30.94,0,46.41,0ZM216.28,267.57c0-11.13-.12-22.26.08-33.39.05-3.02-1.03-4.31-3.8-4.57-4.76-.45-9.55-1.43-14.29-1.21-14.33.66-25.45,6.64-31.12,20.56-3.17,7.77-3.74,15.93-3.07,24.17,1.41,17.34,10.43,28.72,25.97,31.44,6.92,1.21,14.19.61,21.3.48,5.38-.1,4.93.23,4.93-5.5.01-10.66,0-21.32,0-31.99Z"/>
    <path d="M335.56,123.53c.15.91.42,1.83.43,2.74.03,14.05.02,28.1,0,42.15,0,.57-.09,1.14-.17,2.03h-45.97v-46.93c15.23,0,30.47,0,45.7,0Z"/>
    <path d="M336.01,194.9c0,1.64,0,3.02,0,4.41,0,33.38.18,66.76-.08,100.14-.12,16.01-.1,32.06-2.96,47.94-4.57,25.41-18.23,43.84-41.36,55.41-3.15,1.58-5.48,1.65-8.66.08-12.46-6.17-25.1-11.99-38.22-18.19,3.56-1.88,6.69-3.55,9.84-5.18,17.55-9.05,28.8-23.01,32.1-42.62,1.53-9.08,2.51-18.36,2.61-27.56.43-36.53.42-73.07.56-109.6,0-1.52,0-3.03,0-4.82h46.15Z"/>
  </g>
</svg>