<?xml version="1.0" encoding="UTF-8"?>
<svg id="Layer_1" xmlns="http://www.w3.org/2000/svg" viewBox="0 0 2400 512">
  <g>
    <path d="M1680.03,111.3c-38.55.05-69.8,31.29-69.84,69.84v80.44c0,38.58,31.27,69.84,69.84,69.84s69.84-31.27,69.84-69.84v-80.44c-.05-38.55-31.29-69.8-69.84-69.84ZM1712.62,261.58c0,18-14.59,32.59-32.59,32.59s-32.59-14.59-32.59-32.59v-80.44c0-18,14.59-32.59,32.59-32.59s32.59,14.59,32.59,32.59v80.44ZM1509.3,148.83c17.87-2.35,34.26,10.24,36.61,28.11,0,.06.02.12.02.17.29,2.31,2.26,4.03,4.58,4.03h28.08c2.6-.02,4.69-2.13,4.67-4.73,0-.13,0-.25-.02-.38-2.83-37.83-35.3-66.51-73.19-64.65-37.63,2.57-66.72,34.06-66.32,71.78v76.39c-.41,37.72,28.69,69.21,66.32,71.78,37.89,1.87,70.35-26.81,73.18-64.64.23-2.59-1.69-4.87-4.27-5.09-.13-.01-.25-.02-.38-.02h-28.08c-2.33,0-4.29,1.72-4.59,4.03-2.25,17.89-18.57,30.56-36.46,28.31-.06,0-.12-.02-.18-.02-16.46-2.52-28.54-16.8-28.3-33.45v-78.17c-.24-16.65,11.84-30.93,28.3-33.45ZM1895.03,239.65c20.33-9.11,33.42-29.3,33.45-51.58v-17.23c0-31.24-25.33-56.57-56.57-56.57h-78.95c-2.57,0-4.66,2.08-4.66,4.66v204.87c0,2.57,2.08,4.66,4.66,4.66h27.94c2.57,0,4.66-2.08,4.66-4.66v-79.15h30.83l36.86,81.08c.75,1.66,2.41,2.73,4.24,2.73h30.69c2.57,0,4.66-2.09,4.65-4.66,0-.66-.14-1.32-.42-1.93l-37.37-82.22h0ZM1891.23,188.07c-.01,10.66-8.65,19.31-19.31,19.32h-45.87v-55.87h45.87c10.66.02,19.3,8.66,19.31,19.32v17.23ZM2090.95,114.27h-121.06c-2.57,0-4.66,2.08-4.66,4.66v204.87c0,2.57,2.08,4.66,4.66,4.66h121.06c2.57,0,4.66-2.08,4.66-4.66v-27.94c0-2.57-2.08-4.66-4.66-4.66h-88.47v-55.87h60.53c2.57,0,4.66-2.08,4.66-4.66v-27.94c0-2.57-2.08-4.66-4.66-4.66h-60.53v-46.56h88.47c2.57,0,4.66-2.08,4.66-4.66v-27.94c0-2.57-2.08-4.66-4.66-4.66ZM2267.89,114.27h-27.94c-2.57,0-4.66,2.08-4.66,4.66v105.45c.81,18-13.13,33.25-31.14,34.05-18,.81-33.25-13.13-34.05-31.13-.04-.97-.04-1.94,0-2.92v-105.45c0-2.57-2.08-4.66-4.66-4.66h-27.94c-2.57,0-4.66,2.08-4.66,4.66v105.45c-.77,38.57,29.87,70.47,68.45,71.24s70.47-29.87,71.24-68.45c.02-.93.02-1.86,0-2.79v-105.45c0-2.57-2.08-4.66-4.66-4.66Z"/>
    <rect x="2309.79" y="114.27" width="37.25" height="176.93" rx="4.66" ry="4.66"/>
  </g>
  <path d="M53.01,256.35c0-27.12.11-54.24-.03-81.36-.11-20.81,8.41-36.42,26.63-46.89,47.66-27.38,95.23-54.91,142.78-82.49,17.32-10.05,34.42-10.11,51.76-.06,47.55,27.56,95.12,55.11,142.79,82.48,18.21,10.46,26.78,26.01,26.74,46.83-.1,54.24-.06,108.47-.02,162.71.02,20.33-8.32,35.75-26.11,46-47.96,27.63-95.87,55.36-143.79,83.07-16.92,9.78-33.78,9.85-50.72.06-47.92-27.71-95.83-55.44-143.8-83.05-18.25-10.5-26.4-26.34-26.26-47.1.18-26.73.04-53.46.05-80.19ZM408.32,257.12c0-26.06-.39-52.13.18-78.18.24-11.13-4.18-18.08-13.52-23.43-44.87-25.69-89.62-51.59-134.33-77.57-8.19-4.76-15.87-5.08-24.17-.27-45.04,26.14-90.14,52.19-135.3,78.11-8.92,5.12-13.11,11.88-13.04,22.57.38,51.75.38,103.5,0,155.24-.08,10.7,4.12,17.46,13.03,22.58,45.16,25.92,90.25,51.99,135.31,78.1,7.8,4.52,15.27,4.84,23.17.26,45.39-26.28,90.82-52.49,136.28-78.65,8.48-4.88,12.74-11.45,12.54-21.73-.49-25.68-.16-51.37-.15-77.06Z"/>
  <g>
    <path d="M255.92,124.68v212.99c-6.98,1.17-13.81,2.8-20.72,3.36-14.9,1.22-29.84,2.51-44.78,2.61-16.02.1-31.7-2.78-46.13-10.3-18.72-9.76-28.91-25.61-32.46-46.1-.5-2.85-.97-5.71-1.45-8.57,0-5.86,0-11.72,0-17.58.25-1.11.59-2.21.74-3.33,2.33-17.87,9.04-33.62,22.67-45.83,17.36-15.55,38.32-20.16,60.9-19.28,4.95.19,9.87,1.07,15.1,1.66,0-1.34,0-2.49,0-3.64,0-20.84,0-41.68-.01-62.51,0-1.16-.16-2.32-.25-3.48,15.47,0,30.94,0,46.41,0ZM209.76,268.72c0-11.13-.12-22.26.08-33.39.05-3.02-1.03-4.31-3.8-4.57-4.76-.45-9.55-1.43-14.29-1.21-14.33.66-25.45,6.64-31.12,20.56-3.17,7.77-3.74,15.93-3.07,24.17,1.41,17.34,10.43,28.72,25.97,31.44,6.92,1.21,14.19.61,21.3.48,5.38-.1,4.93.23,4.93-5.5.01-10.66,0-21.32,0-31.99Z"/>
    <path d="M329.04,124.68c.15.91.42,1.83.43,2.74.03,14.05.02,28.1,0,42.15,0,.57-.09,1.14-.17,2.03h-45.97v-46.93c15.23,0,30.47,0,45.7,0Z"/>
    <path d="M329.49,196.06c0,1.64,0,3.02,0,4.41,0,33.38.18,66.76-.08,100.14-.12,16.01-.1,32.06-2.96,47.94-4.57,25.41-18.23,43.84-41.36,55.41-3.15,1.58-5.48,1.65-8.66.08-12.46-6.17-25.1-11.99-38.22-18.19,3.56-1.88,6.69-3.55,9.84-5.18,17.55-9.05,28.8-23.01,32.1-42.62,1.53-9.08,2.51-18.36,2.61-27.56.43-36.53.42-73.07.56-109.6,0-1.52,0-3.03,0-4.82h46.15Z"/>
  </g>
  <path d="M1090.34,404.82c-6.03-.95-12.12-1.62-18.07-2.93-6.21-1.38-12.3-3.29-18.38-5.2-1.04-.33-2.45-1.77-2.46-2.71-.16-13.45-.11-26.9-.11-40.55,5.65,2.26,10.9,4.63,16.34,6.48,15,5.1,30.39,6.65,46.12,4.55,18.48-2.48,29.14-13.81,30.52-32.5.21-2.88.33-5.77.49-8.7-5.86,1.6-11.19,3.69-16.7,4.46-22.44,3.11-43.46.05-60.79-16.13-10.52-9.82-16.08-22.33-18.31-36.35-2.76-17.38-1.69-34.46,5.63-50.69,8.84-19.6,24.56-31.6,44.25-38.96,14.99-5.61,30.6-7.88,46.5-8.47,22.32-.84,44.37,1.46,66.24,5.76.92.18,1.82.48,3.11.83-3.2,6.74-6.31,13.31-9.43,19.88-.2.43-.43.84-.63,1.27-1.68,3.52-2.83,7.43-5.16,10.45-2.77,3.59-7.07-1.1-10.75,1.33,0,3.61-.03,7.69,0,11.77.28,30.02.9,60.04.74,90.05-.08,15.01-1.69,30.05-8.08,43.97-10.15,22.11-28.09,34.36-51.35,39.46-5.84,1.28-11.8,1.98-17.71,2.94h-22ZM1144.27,213.62c-6.53.63-12.21.68-17.67,1.81-14.18,2.91-25.28,10-29.55,24.74-2.95,10.19-2.89,20.55.33,30.72,3.52,11.11,11.01,17.93,22.59,19.94,7.09,1.23,14.08.49,21.04-1.26,2.85-.72,3.97-1.87,3.9-4.99-.36-16.18-.48-32.36-.63-48.54-.07-7.17-.01-14.34-.01-22.42Z"/>
  <path d="M657.44,108.18v214.96c-7.04,1.18-13.94,2.82-20.92,3.39-15.04,1.23-30.12,2.54-45.19,2.63-16.17.1-31.99-2.8-46.56-10.4-18.9-9.85-29.18-25.85-32.77-46.52-.5-2.88-.98-5.76-1.47-8.65,0-5.91,0-11.83,0-17.74.25-1.12.59-2.23.74-3.36,2.35-18.03,9.13-33.93,22.88-46.25,17.52-15.7,38.67-20.34,61.46-19.46,4.99.19,9.96,1.08,15.24,1.68,0-1.35,0-2.51,0-3.67,0-21.03,0-42.06-.01-63.09,0-1.17-.16-2.34-.25-3.51,15.61,0,31.23,0,46.84,0ZM610.86,253.56c0-11.23-.12-22.47.08-33.7.06-3.05-1.04-4.35-3.83-4.61-4.81-.45-9.64-1.44-14.42-1.22-14.47.66-25.68,6.71-31.41,20.75-3.2,7.84-3.78,16.08-3.1,24.39,1.42,17.5,10.52,28.98,26.21,31.73,6.98,1.22,14.33.62,21.5.49,5.43-.1,4.97.23,4.98-5.55.01-10.76,0-21.52,0-32.28Z"/>
  <path d="M1362.14,261.47c-1.18,5.99-2,12.08-3.59,17.96-8.1,29.91-32.49,49.52-63.41,51.65-12.62.87-25.01.3-37.13-3.49-21.32-6.66-35.98-20.53-43.04-41.67-7.39-22.14-7.04-44.51,1.58-66.26,9.96-25.15,29.46-38.56,55.72-42.51,13.79-2.08,27.62-1.67,41.07,2.46,27.34,8.38,42.22,27.59,47.3,55.13.55,2.99,1.01,6,1.51,9v17.74ZM1257.55,254.52c-.12,8.28.99,17.15,5.26,25.32,4.92,9.42,12.73,14.36,23.45,14.34,10.75-.03,18.78-4.96,23.1-14.67,2.45-5.51,4.09-11.62,4.82-17.61,1.4-11.48.64-22.92-4.46-33.63-4.52-9.49-12.1-14.78-22.64-14.98-10.52-.2-18.71,4.27-23.88,13.69-4.57,8.34-5.71,17.41-5.66,27.54Z"/>
  <path d="M731.24,108.18c.15.92.43,1.84.43,2.77.03,14.18.02,28.36,0,42.54,0,.58-.09,1.15-.17,2.05h-46.4v-47.37c15.38,0,30.75,0,46.13,0Z"/>
  <path d="M942.47,327.35h-46.28v-140.53c9.15-1.99,18.42-4.22,27.78-6,15.47-2.93,31.12-4.43,46.87-4.21,12.34.17,24.54,1.5,35.97,6.68,14.94,6.78,23.37,18.38,25.2,34.63.65,5.74.93,11.55.94,17.33.09,29.09.04,58.19.04,87.28,0,1.5,0,3.01,0,4.72h-46.28v-4.05c0-27.2.02-54.4-.02-81.6,0-3.18-.15-6.39-.5-9.55-1.32-12.1-7.27-17.95-19.46-17.98-6.9-.02-13.8,1.39-20.71,2.15-2.91.32-3.65,1.89-3.64,4.78.11,33.94.07,67.88.07,101.83v4.53Z"/>
  <path d="M830.48,233.62c0-4.16.3-8.19-.07-12.15-.54-5.67-3.92-8.5-10.44-9.02-12.77-1.01-25.27.77-37.4,4.69-7.6,2.46-14.98,5.56-22.85,8.52,0-4.59,0-9.25,0-13.91,0-6.27-.11-12.54.1-18.8.04-1.18,1.05-2.93,2.08-3.39,25.39-11.42,51.82-15.94,79.44-10.99,5.03.9,10.04,2.82,14.61,5.15,11.25,5.74,15.74,15.88,16.43,27.91.5,8.73.68,17.48.71,26.22.09,27.56-.02,55.11.1,82.67.01,3.24-.5,4.57-4.22,5.03-21.37,2.65-42.78,4.5-64.31,4.44-10.65-.03-21.22-1.1-31.29-5.1-13.96-5.54-21.39-16.09-22.69-30.69-.6-6.74-.28-13.77.96-20.42,2.18-11.77,9.74-19.97,19.98-25.75,11.18-6.3,23.45-9.27,35.97-11.3,7.46-1.21,14.97-2.04,22.91-3.11ZM832.57,264.29c-10.24,1.11-20.13,1.95-29.46,5.58-2.49.97-4.95,2.35-6.97,4.07-4.42,3.77-5.15,8.83-3.88,14.23,1.13,4.81,4.61,7.32,9.17,8.32,10.48,2.3,20.79.46,31.14-1.14v-31.06Z"/>
  <path d="M731.7,180.21c0,1.65,0,3.05,0,4.45,0,33.69.18,67.38-.08,101.07-.12,16.16-.1,32.35-2.98,48.38-4.61,25.64-18.4,44.25-41.74,55.92-3.18,1.59-5.53,1.67-8.74.08-12.58-6.23-25.33-12.1-38.57-18.36,3.6-1.89,6.75-3.59,9.93-5.23,17.72-9.14,29.07-23.22,32.4-43.02,1.54-9.17,2.53-18.53,2.64-27.81.43-36.87.42-73.75.57-110.62,0-1.53,0-3.06,0-4.86h46.58Z"/>
</svg>